<?xml version="1.0" encoding="utf-8"?>
<!-- Generator: Adobe Illustrator 25.1.0, SVG Export Plug-In . SVG Version: 6.00 Build 0)  -->
<svg version="1.1" id="Livello_1" xmlns="http://www.w3.org/2000/svg" xmlns:xlink="http://www.w3.org/1999/xlink" x="0px" y="0px"
	 viewBox="0 0 393.7 289" enable-background="new 0 0 393.7 289" xml:space="preserve">
<path d="M254.8,72.8c0,33.6-25.4,58.4-57.6,64c-0.6,0.1-1.2-0.2-1.7-0.3c0.4-0.3,0.7-0.7,1.1-0.9c18.4-6.3,25.3-21.4,27.9-38.7
	c4.3-29.2-3.6-55.4-22.7-78c-7.3-8.7-16.5-15-28-17.1c-0.8-0.1-2,0-2-1c0-1.2,1.3-0.7,1.9-0.7C214.6-2,255.1,30.5,254.8,72.8z
	 M192.5,236c0-14.1,0-28.3,0-42.4c0-8.8,0.1-8.8-8-4.7c-0.7,0.4-1.4,0.9-2.2,1.1c-4.6,1.3-5.8,4.5-5.6,9c0.3,5.6-0.1,11.3,0.1,17
	c0.1,3.5-0.6,4-4,2.7c-19.8-7.5-42.7,2.1-51.6,21.3c-9.2,19.9,1.6,42.1,23,47.3c10.5,2.5,20.1-0.1,29.2-5.3c1-0.6,3.6-3.6,3.3,0.8
	c-0.2,4.1,1.8,4.3,5,4.1c2.1-0.2,4.2-0.1,6.3,0.1c3.5,0.4,4.6-1,4.5-4.5c-0.2-15.5-0.1-31-0.1-46.4C192.4,236,192.5,236,192.5,236z
	 M176.9,273c0.1,3.1-1.2,4.5-4,5.3c-5.6,1.7-11.3,1.6-16.6-0.7c-14.4-6.4-22.8-17.6-24.5-33.2c-1.7-15.2,10.1-24.8,25.1-21.1
	c7.3,1.8,13.1,6.2,18.5,11.3c1.4,1.3,1.4,2.9,1.4,4.6c0,5.7,0,11.3,0,17c0,0-0.1,0-0.1,0C176.8,261.7,176.6,267.3,176.9,273z
	 M74.7,189.7c0.1-4.9-1.4-4.7-4.8-2.7c-2.6,1.5-5.2,2.9-8,4.1c-2.6,1.1-3.3,2.8-3.2,5.4c0.2,6.7,0,13.3,0.2,20
	c0.1,3.3-0.9,3.4-3.7,2.3c-17.7-6.7-37.3-0.7-48.3,14.7c-15.1,21.1-4.3,49.1,20.9,54.1c10,1.9,19.1-0.8,27.8-5.8
	c1.7-1,3.6-2.3,3.2,1.3c-0.4,3.4,1.4,3.9,4.1,3.7c2.5-0.2,5-0.2,7.5,0c3.3,0.3,4.3-0.9,4.2-4.2c-0.2-15.7-0.1-31.3-0.1-47
	C74.6,220.3,74.4,205,74.7,189.7z M58.9,272.5c0.1,3.1-1.1,4.5-3.9,5.4c-6,1.8-11.9,1.6-17.5-1.1c-14.1-6.7-22.2-17.9-23.7-33.4
	c-1.4-14.9,10.5-24.2,25.3-20.5c7.2,1.8,12.9,6.1,18.1,11c1.4,1.3,1.5,2.8,1.5,4.5c0,5.8,0,11.7,0,17.5c0,0,0,0,0,0
	C58.9,261.5,58.7,267,58.9,272.5z M294.7,255c0,7.3,0,14.6,0,22c0,10.2,0,10,10.2,10.2c4.3,0.1,5.3-1.4,5.2-5.4
	c-0.2-13.5-0.1-27,0.1-40.4c0.2-15.4,0.9-15.9,16.6-15.1c11,0.6,16.8,6.6,16.9,17.5c0.1,10.8,0,21.6,0,32.5c0,11.4,0,11.3,11.5,10.9
	c2.8-0.1,3.8-0.9,3.8-3.7c-0.1-15.6,0.2-31.3-0.1-46.9c-0.2-12.6-8-19.8-20.6-20.2c-9-0.3-17,2.6-24.7,6.6c-1.3,0.7-2.9,2.2-3.4-1.1
	c-0.8-5.9-0.9-5.9-6.2-3.3c-1.8,0.9-3.5,2-5.4,2.6c-3.2,1.1-4.1,3.1-4,6.4C294.8,236.7,294.6,245.9,294.7,255
	C294.7,255,294.7,255,294.7,255z M279.2,262.7c6.9-15.7,1.3-33-13.3-41.7c-25.6-15.1-62.7,5.6-63.1,35.4
	c-0.3,17.8,15.7,32.5,35.4,32.5C255.5,289,272.4,278.2,279.2,262.7z M238.3,224.5c17.9,3.6,32.5,24.8,29.3,42.6
	c-1.6,9-9.5,14.6-18.6,13.4c-17.8-2.4-32.1-19-32.6-37.6C216,230.5,226,222.1,238.3,224.5z M198.8,159.9c0.8-0.1,2.1,0.5,2.3-1
	c0-0.1-1.4-0.6-2.1-0.7c-5.6-0.5-10.1-3.2-13.9-7.2c-9.9-10.3-14.2-22.7-13.2-36.9c0.6-7.8,2.9-15,9.5-20.1c1.4-1.1,4.7-1.3,4.2-3.1
	c-0.4-1.7-3.6-0.9-5.4-1.5c-0.2-0.1-0.3-0.1-0.5-0.1c-20.4-2.6-38.5,10.9-40.5,30.2c-1.5,14,7.4,28.7,21.5,35.2
	c9.1,4.2,18.8,5.4,29.8,5.6C192.5,160.3,195.7,160.2,198.8,159.9z M393.7,252c0-8.2,0-16.3,0-24.5c0-12.1,0.1-11.9-10.9-6.7
	c-3.6,1.7-5,3.8-4.9,7.9c0.3,15.8,0.1,31.6,0.1,47.5c0,11.4,0,11.2,11.3,11.1c3.3,0,4.3-1.2,4.3-4.3
	C393.5,272.7,393.6,262.4,393.7,252C393.6,252,393.7,252,393.7,252z M108.7,251c0-8,0-16,0-24c0-12.2,0.1-12-11.1-6.8
	c-3.7,1.7-4.6,3.8-4.6,7.6c0.2,16,0.1,32,0.1,47.9c0,11.1,0,10.9,11.1,10.9c3.6,0,4.5-1.3,4.5-4.7c-0.2-10.3-0.1-20.6-0.1-31
	C108.6,251,108.6,251,108.7,251z"/>
</svg>
